<svg width="190" height="32" viewBox="0 0 190 32" fill="none" xmlns="http://www.w3.org/2000/svg">
<g id="logo-trisul">
<path id="Vector" d="M171.305 23.2462V0.597656H163.847V30.7973H190V23.2462H171.305Z" fill="#041C3E"/>
<path id="Vector_2" d="M102.072 0.614258H94.5986V30.7957H102.072V0.614258Z" fill="#041C3E"/>
<path id="Vector_3" d="M34.3424 8.14897H43.7839V30.7975H51.4098V8.14897H60.8263V0.61441H34.3424V8.14897Z" fill="#041C3E"/>
<g id="Group">
<path id="Vector_4" d="M119.481 11.8118C116.766 11.5427 113.819 11.2869 113.819 9.04778C113.819 7.39503 116.394 6.65586 118.568 6.65586C121.066 6.65586 123.157 7.16912 124.961 8.22555L125.058 8.28203L129.944 3.47991L129.813 3.38191C126.676 1.04314 123.207 0 118.568 0C112.203 0 105.758 3.10784 105.758 9.04944C105.758 14.991 109.719 17.873 118.224 18.745C121.893 19.1204 123.73 19.9742 123.73 21.5954C123.73 23.2166 121.521 24.3594 118.521 24.3594C115.086 24.3594 112.281 23.386 109.942 21.3844L109.841 21.2981L104.814 26.2414L104.919 26.341C109.766 30.9654 116.015 31.4637 118.477 31.4637C127.75 31.4637 131.903 26.5719 131.903 21.725C131.903 14.619 125.147 12.4131 119.48 11.8134" fill="#041C3E"/>
<path id="Vector_5" d="M152.631 0.604645V18.559C152.631 21.5472 150.209 23.9691 147.221 23.9691H146.703C143.715 23.9691 141.293 21.5472 141.293 18.559V0.604645L133.83 0.6279V18.961C133.83 25.866 139.427 31.4638 146.334 31.4638H147.6C154.505 31.4638 160.104 25.866 160.104 18.961V0.6279L152.634 0.604645H152.631Z" fill="#041C3E"/>
<path id="Vector_6" d="M72.0001 8.1621H79.4715C81.5545 8.1621 83.2438 9.8514 83.2438 11.9344C83.2438 14.0173 81.5545 15.7066 79.4715 15.7066H72.0001V8.1621ZM90.7917 11.9344C90.7917 5.69211 85.7138 0.614258 79.4715 0.614258H64.4523V30.7973H72.0101V23.2545H77.7424L83.1458 30.7973H90.7435V30.0565L84.8816 21.8758C88.3997 19.9539 90.7933 16.2182 90.7933 11.9344" fill="#041C3E"/>
</g>
<path id="Vector_7" d="M0 0.541016V8.10879H22.7083V30.8287H30.2744V0.552643H30.2595V0.541016H0Z" fill="#FFC43C"/>
<path id="Vector_8" d="M11.3483 11.9031H0.0065918V19.4676H11.3483V30.8309H18.9227V11.9031H11.3483Z" fill="#FFC43C"/>
<path id="Vector_9" d="M7.56778 23.2597H0V30.8291H7.56778V23.2597Z" fill="#FFC43C"/>
<path id="Vector_10" d="M0 30.8308H7.56944V23.2597L0 30.8308Z" fill="#C48E17"/>
<path id="Vector_11" d="M11.3484 19.4676V30.8309H18.9228V11.9031L11.3484 19.4676Z" fill="#C48E17"/>
<path id="Vector_12" d="M22.7083 8.10713V30.8287H30.2744V0.552643H30.2594V0.541016L22.7083 8.10713Z" fill="#C48E17"/>
</g>
</svg>
